<?xml version="1.0" encoding="UTF-8"?>
<!-- Created with Inkscape (http://www.inkscape.org/) -->
<svg width="256" height="256" version="1.1" viewBox="0 0 67.733332 67.733335" xmlns="http://www.w3.org/2000/svg" xmlns:cc="http://creativecommons.org/ns#" xmlns:dc="http://purl.org/dc/elements/1.1/" xmlns:osb="http://www.openswatchbook.org/uri/2009/osb" xmlns:rdf="http://www.w3.org/1999/02/22-rdf-syntax-ns#"><metadata><rdf:RDF><cc:Work rdf:about=""><dc:format>image/svg+xml</dc:format><dc:type rdf:resource="http://purl.org/dc/dcmitype/StillImage"/><dc:title/></cc:Work></rdf:RDF></metadata><g transform="translate(0 -229.27)"><circle cx="33.867" cy="263.13" r="31.882" style="fill-opacity:.52756;fill:#808080;paint-order:normal;stroke-linecap:round;stroke-linejoin:round;stroke-width:3.969;stroke:#ffffff"/><g transform="matrix(2.8222 0 0 2.8222 0 229.27)" style="fill:none"><path d="m0 0h24v24h-24z" style="fill:none"/></g><g transform="matrix(.30592 0 0 .33074 25.646 245.63)" style="stroke-width:.83179"><path d="m0 0h24v24h-24z" style="fill:none;stroke-width:.83179"/><path d="m13.035 101.77h26.947v22.665h-26.947zm26.947-16.999h-26.947c0-36.83 40.421-33.997 40.421-56.662 0-12.466-12.126-22.665-26.947-22.665-14.821 0-26.947 10.199-26.947 22.665h-26.947c0-25.045 24.118-45.33 53.895-45.33 29.777 0 53.895 20.285 53.895 45.33 0 28.331-40.421 31.164-40.421 56.662z" style="fill:#ffffff;stroke-width:.83179"/></g></g></svg>
